<?xml version="1.0" standalone="no"?>
<!DOCTYPE svg PUBLIC "-//W3C//DTD SVG 20010904//EN"
 "http://www.w3.org/TR/2001/REC-SVG-20010904/DTD/svg10.dtd">
<svg version="1.0" xmlns="http://www.w3.org/2000/svg"
 width="1184.000000pt" height="1184.000000pt" viewBox="0 0 1184.000000 1184.000000"
 preserveAspectRatio="xMidYMid meet">
<metadata>
Created by potrace 1.14, written by Peter Selinger 2001-2017
</metadata>
<g transform="translate(0.000000,1184.000000) scale(0.100000,-0.100000)"
fill="#000000" stroke="none">
<path d="M2795 11746 c-50 -50 -106 -111 -125 -135 -19 -23 -43 -51 -52 -62
-10 -10 -18 -23 -18 -29 0 -5 -3 -10 -7 -10 -5 0 -21 -23 -38 -51 -16 -28 -34
-56 -40 -63 -24 -28 -130 -256 -119 -256 3 0 0 -8 -5 -17 -5 -10 -12 -35 -15
-55 -3 -21 -10 -55 -15 -76 -11 -50 -11 -236 0 -276 5 -17 10 -47 13 -66 8
-69 109 -323 149 -375 4 -5 31 -46 59 -90 29 -44 56 -84 60 -90 47 -59 88
-116 88 -121 0 -4 10 -16 23 -28 12 -11 30 -34 40 -49 10 -16 24 -36 32 -45
40 -49 85 -113 85 -121 0 -4 9 -16 20 -26 11 -10 17 -22 14 -26 -3 -5 -1 -9 4
-9 12 0 59 -105 70 -155 9 -44 8 -92 -2 -143 -8 -38 -51 -129 -72 -150 -8 -7
-19 -23 -25 -34 -12 -22 -43 -59 -96 -115 -18 -18 -33 -35 -33 -38 0 -2 105
-111 234 -241 l234 -237 29 29 c16 16 53 58 83 94 30 36 57 67 60 70 17 17 90
130 90 139 0 6 4 11 8 11 10 0 112 211 112 232 0 8 3 18 8 22 4 4 7 11 8 14 0
4 6 32 12 62 44 205 29 392 -48 585 -42 106 -148 297 -188 340 -10 11 -18 22
-18 25 0 3 -60 86 -134 185 -155 207 -190 257 -190 272 0 6 -4 13 -8 15 -5 2
-21 32 -35 68 -21 54 -25 78 -23 140 2 41 9 89 16 105 7 17 14 32 14 35 3 14
57 99 80 123 14 15 22 27 19 27 -3 0 35 41 86 90 50 50 91 95 91 99 0 5 -15
25 -32 44 -18 19 -44 48 -58 63 -72 83 -157 180 -175 199 -69 74 -126 138
-132 148 -5 7 -17 20 -28 29 -20 16 -23 14 -110 -76z"/>
<path d="M4453 11731 c-125 -129 -201 -225 -270 -339 -33 -54 -86 -167 -93
-197 -1 -5 -6 -18 -11 -27 -51 -95 -70 -361 -36 -508 2 -8 7 -33 12 -55 21
-105 114 -296 219 -449 34 -49 66 -96 71 -104 6 -9 22 -30 37 -47 16 -16 28
-33 28 -37 0 -4 6 -13 13 -20 23 -24 77 -96 77 -102 0 -4 10 -17 23 -29 12
-12 29 -34 36 -49 8 -16 18 -28 23 -28 4 0 8 -4 8 -9 0 -6 13 -29 29 -53 15
-24 39 -71 53 -106 61 -152 7 -303 -175 -495 -37 -38 -37 -40 -20 -59 10 -11
116 -120 236 -241 l217 -221 55 58 c55 57 195 238 195 251 0 3 11 21 24 38 24
32 96 179 101 207 2 8 4 15 5 15 2 0 2 3 30 110 11 44 19 90 17 103 -2 12 -1
22 2 22 8 0 7 166 -2 205 -4 17 -9 46 -12 65 -5 39 -9 58 -17 80 -3 8 -13 38
-23 65 -9 28 -25 69 -36 92 -10 24 -19 45 -19 47 0 10 -104 184 -136 227 -18
25 -31 49 -27 53 3 3 2 6 -4 6 -5 0 -25 21 -43 48 -19 26 -37 49 -40 52 -3 3
-17 21 -30 40 -14 19 -35 46 -47 60 -13 14 -23 28 -23 32 0 5 -8 16 -17 26
-28 27 -96 129 -134 197 -40 73 -57 138 -54 206 1 35 3 64 4 64 2 0 5 11 7 25
11 62 106 193 221 306 l83 82 -33 36 c-17 19 -52 58 -77 86 -25 28 -54 61 -65
74 -11 12 -47 53 -80 91 -33 37 -71 80 -85 95 -14 15 -41 45 -60 67 -19 21
-39 42 -45 45 -5 3 -56 -42 -112 -101z"/>
<path d="M6154 11761 c-108 -108 -131 -134 -200 -226 -116 -153 -204 -326
-229 -450 -2 -5 -8 -36 -15 -68 -15 -77 -19 -200 -8 -279 5 -34 10 -72 12 -83
1 -12 5 -25 8 -30 5 -9 11 -30 24 -90 5 -22 66 -157 95 -212 46 -83 151 -243
161 -243 4 0 8 -6 8 -12 0 -7 13 -27 28 -45 15 -18 43 -54 62 -80 41 -56 60
-80 78 -98 6 -8 12 -18 12 -23 0 -6 3 -12 8 -14 12 -5 62 -76 62 -87 0 -6 4
-11 10 -11 5 0 12 -11 16 -25 3 -14 10 -25 14 -25 5 0 23 -37 40 -82 28 -73
32 -91 27 -149 -5 -63 -49 -179 -81 -212 -6 -7 -23 -28 -36 -47 -14 -19 -34
-44 -45 -55 -11 -11 -32 -34 -47 -51 l-28 -30 237 -239 236 -239 59 64 c33 35
86 100 119 144 33 45 63 86 67 91 21 27 87 154 113 218 56 133 73 224 71 377
-1 135 -5 180 -16 180 -5 0 -7 3 -4 6 4 3 2 20 -3 37 -6 18 -12 42 -15 55 -19
93 -162 368 -239 459 -5 7 -28 37 -50 68 -22 31 -65 88 -95 128 -31 40 -73 97
-95 127 -22 30 -43 57 -47 58 -5 2 -6 8 -2 13 3 5 2 9 -3 9 -8 0 -64 103 -79
145 -17 45 -26 183 -13 191 5 3 9 13 9 22 0 19 44 104 75 147 32 44 95 114
163 181 l64 62 -39 43 c-21 24 -40 46 -43 49 -3 3 -39 43 -80 89 -41 47 -82
92 -90 101 -8 9 -40 45 -71 81 -31 35 -72 81 -91 102 l-35 38 -79 -80z"/>
<path d="M1895 7780 l-210 -5 1 -3105 c0 -2819 3 -3203 21 -3263 3 -11 6 -29
8 -40 8 -55 72 -255 86 -267 3 -3 11 -21 19 -40 8 -19 25 -53 38 -75 100 -172
204 -293 367 -423 10 -7 78 -53 120 -80 40 -25 203 -101 231 -108 16 -4 34
-10 39 -13 9 -6 68 -22 133 -36 12 -3 30 -7 40 -9 9 -2 49 -7 87 -12 86 -9
4182 -11 4280 -1 69 7 82 8 159 22 50 9 164 44 191 58 11 6 27 12 35 14 22 3
167 80 217 114 23 16 45 29 50 29 4 0 14 9 21 20 7 11 17 20 23 20 6 0 23 12
39 28 16 15 48 45 72 67 182 170 344 467 383 703 3 17 8 47 11 65 12 72 14
118 15 505 l1 403 21 8 c12 5 45 12 72 16 28 5 52 9 55 10 3 1 23 5 45 10 56
13 55 12 58 15 1 1 9 3 17 5 42 9 187 58 198 67 6 6 12 8 12 5 0 -3 16 1 35 9
70 29 170 75 190 86 11 6 45 25 75 41 30 16 84 48 120 71 36 24 69 43 74 43 5
1 12 6 15 11 3 5 35 31 71 58 36 27 79 61 95 74 32 27 257 252 291 291 58 68
204 272 204 285 0 4 10 21 23 38 12 17 40 67 62 111 22 44 42 82 45 85 3 3 6
12 8 20 2 8 14 36 28 63 13 26 21 47 18 47 -4 0 -2 6 4 13 8 10 56 141 67 187
3 8 14 49 25 90 11 41 23 86 25 100 2 14 6 34 8 45 11 50 21 113 22 141 1 17
4 35 7 40 7 13 11 107 12 276 1 82 5 148 9 148 5 0 5 5 1 11 -10 17 -11 142
-1 157 5 6 6 12 1 12 -5 0 -9 32 -9 70 0 39 4 70 8 70 5 0 5 5 1 11 -10 17
-11 142 -1 157 5 6 6 12 1 12 -5 0 -9 32 -9 70 0 39 4 70 8 70 5 0 5 5 1 11
-10 17 -11 142 -1 157 5 6 6 12 1 12 -5 0 -9 32 -9 70 0 39 4 70 8 70 5 0 5 5
1 11 -10 17 -11 142 -1 157 5 6 6 12 1 12 -5 0 -9 32 -9 70 0 39 4 70 8 70 5
0 5 5 1 11 -10 17 -11 142 -1 157 6 7 6 12 -1 12 -5 0 -8 9 -5 20 3 11 3 30
-1 43 l-5 23 -983 -1 c-541 0 -991 1 -1000 3 -16 4 -17 54 -16 683 0 374 -2
682 -4 685 -7 6 -6205 10 -6473 4z m7814 -2623 c-1 -571 -3 -624 -39 -803 -14
-74 -69 -256 -81 -268 -5 -6 -9 -16 -9 -23 0 -15 -40 -105 -51 -113 -3 -3 -10
-16 -14 -30 -4 -14 -14 -33 -23 -42 -8 -10 -11 -18 -6 -18 5 0 4 -4 -1 -8 -6
-4 -23 -27 -37 -52 -24 -41 -60 -93 -130 -185 -77 -101 -307 -302 -433 -378
-102 -62 -349 -167 -428 -181 -12 -3 -22 -5 -22 -6 0 -1 -14 -4 -32 -6 l-31
-5 0 1345 0 1345 669 0 669 1 -1 -573z"/>
</g>
</svg>
