<svg width="102" height="67" viewBox="0 0 102 67" fill="none" xmlns="http://www.w3.org/2000/svg">
<path d="M71.837 66.8568V39.9902H90.9926V45.8673H79.0528V50.485H90.0063V56.362H79.0528V60.9797H90.9407V66.8568H71.837Z" fill="white"/>
<path d="M37.7892 39.9902H46.77L52.9475 55.2076H53.259L59.4366 39.9902H68.4174V66.8568H61.3573V51.3246H61.1497L55.2317 66.6469H50.9749L45.0569 51.2196H44.8492V66.8568H37.7892V39.9902Z" fill="white"/>
<path d="M34.3694 39.9902V66.8568H27.1536V39.9902H34.3694Z" fill="white"/>
<path d="M1.33704 45.8673V39.9902H24.438V45.8673H16.4435V66.8568H9.33151V45.8673H1.33704Z" fill="white"/>
<path d="M47.6206 34.8738V12.7584H57.0644C58.6882 12.7584 60.109 13.0824 61.3269 13.7303C62.5447 14.3782 63.492 15.2889 64.1685 16.4623C64.8451 17.6358 65.1834 19.0072 65.1834 20.5766C65.1834 22.1604 64.8345 23.5318 64.1365 24.6908C63.4457 25.8499 62.4735 26.7425 61.22 27.3689C59.9737 27.9952 58.5172 28.3083 56.8507 28.3083H51.2101V23.6434H55.6542C56.3522 23.6434 56.9468 23.521 57.4383 23.2762C57.9368 23.0242 58.3178 22.6679 58.5813 22.2071C58.852 21.7464 58.9873 21.2029 58.9873 20.5766C58.9873 19.9431 58.852 19.4031 58.5813 18.9568C58.3178 18.5032 57.9368 18.1577 57.4383 17.9201C56.9468 17.6754 56.3522 17.553 55.6542 17.553H53.5603V34.8738H47.6206Z" fill="#64099B"/>
<path d="M38.1299 12.7584H44.0696V26.9261C44.0696 28.6107 43.6708 30.0685 42.8731 31.2995C42.0826 32.5234 40.9787 33.47 39.5614 34.1395C38.1441 34.8019 36.499 35.133 34.6259 35.133C32.7386 35.133 31.0863 34.8019 29.669 34.1395C28.2517 33.47 27.1478 32.5234 26.3573 31.2995C25.5738 30.0685 25.1821 28.6107 25.1821 26.9261V12.7584H31.1219V26.4078C31.1219 27.0917 31.2714 27.7036 31.5706 28.2435C31.8697 28.7763 32.2828 29.1938 32.8098 29.4962C33.3439 29.7985 33.9493 29.9497 34.6259 29.9497C35.3096 29.9497 35.915 29.7985 36.442 29.4962C36.969 29.1938 37.3821 28.7763 37.6812 28.2435C37.9803 27.7036 38.1299 27.0917 38.1299 26.4078V12.7584Z" fill="#64099B"/>
<path d="M22.4874 21.0517H16.4622C16.4195 20.5478 16.3055 20.0906 16.1203 19.6803C15.9423 19.2699 15.693 18.9172 15.3725 18.622C15.0592 18.3197 14.6781 18.0893 14.2295 17.9309C13.7808 17.7653 13.2715 17.6825 12.7018 17.6825C11.7047 17.6825 10.8608 17.9273 10.1699 18.4169C9.48621 18.9064 8.96631 19.6083 8.61021 20.5226C8.26123 21.4368 8.08674 22.5347 8.08674 23.8161C8.08674 25.1695 8.26479 26.3034 8.62089 27.2177C8.98411 28.1247 9.50758 28.8086 10.1913 29.2694C10.875 29.7229 11.6976 29.9497 12.6591 29.9497C13.2075 29.9497 13.6989 29.8813 14.1333 29.7445C14.5678 29.6005 14.9452 29.3954 15.2657 29.129C15.5862 28.8626 15.8461 28.5423 16.0456 28.1679C16.2521 27.7864 16.391 27.358 16.4622 26.8829L22.4874 26.9261C22.4162 27.862 22.1562 28.8158 21.7075 29.7877C21.2589 30.7524 20.6214 31.6451 19.7953 32.4658C18.9763 33.2792 17.9614 33.9344 16.7506 34.4311C15.5399 34.9278 14.1333 35.1762 12.5309 35.1762C10.5225 35.1762 8.7206 34.7407 7.12527 33.8696C5.53707 32.9985 4.28004 31.7171 3.35418 30.0253C2.43544 28.3335 1.97607 26.2638 1.97607 23.8161C1.97607 21.3541 2.44613 19.2807 3.38623 17.5962C4.32633 15.9044 5.59405 14.6266 7.18937 13.7627C8.7847 12.8916 10.5652 12.4561 12.5309 12.4561C13.9125 12.4561 15.1838 12.6468 16.3447 13.0284C17.5056 13.4099 18.524 13.9679 19.4 14.7022C20.276 15.4293 20.9811 16.3255 21.5153 17.391C22.0494 18.4564 22.3735 19.6767 22.4874 21.0517Z" fill="#64099B"/>
<g clip-path="url(#clip0_15_69)">
<path d="M96.933 22.2674V16.9832H90.6636V12.6853H69.7655V31.8495C69.7655 34.181 71.64 36.0769 73.9451 36.0769H86.484C88.7891 36.0769 90.6636 34.181 90.6636 31.8495V29.629C94.1988 29.1107 96.933 25.9843 96.933 22.2674ZM94.8432 22.2674C94.8432 24.8191 93.0453 27.0242 90.6636 27.5152V19.0969H94.8432V22.2674ZM74.9308 1.57083L73.5329 0C70.6043 2.66791 72.1798 4.71454 73.1206 5.93654C74.039 7.13064 74.3829 7.57755 73.2063 8.76756L74.6839 10.262C77.1655 7.752 75.6655 5.80239 74.7695 4.63823C73.8084 3.38932 73.4482 2.92184 74.9308 1.57083ZM80.1553 1.57083L78.7574 0C75.8288 2.66791 77.4043 4.71454 78.3451 5.93654C79.2635 7.13064 79.6074 7.57755 78.4308 8.76756L79.9084 10.262C82.39 7.752 80.89 5.80239 79.9941 4.63823C79.0329 3.38932 78.6727 2.92184 80.1553 1.57083ZM85.3799 1.57083L83.9819 0C81.0533 2.66791 82.6288 4.71454 83.5697 5.93654C84.4881 7.13064 84.8319 7.57755 83.6553 8.76756L85.1329 10.262C87.6146 7.752 86.1146 5.80239 85.2186 4.63823C84.2574 3.38932 83.8972 2.92184 85.3799 1.57083Z" fill="#64099B"/>
</g>
<defs>
<clipPath id="clip0_15_69">
<rect width="35.6691" height="36.0769" fill="white" transform="translate(65.5146)"/>
</clipPath>
</defs>
</svg>
